<svg width="1518" height="1735" viewBox="0 0 1518 1735" fill="none" xmlns="http://www.w3.org/2000/svg">
<g filter="url(#filter0_d_5931_321)">
<rect x="294" y="681" width="530.674" height="347.635" rx="75.6764" fill="white"/>
<rect x="295" y="682" width="528.674" height="345.635" rx="74.6764" stroke="url(#paint0_linear_5931_321)" stroke-width="2"/>
</g>
<path d="M664.962 947.368V933.752L665.896 934.473H661.802V931.886H667.953V947.368H664.962ZM678.327 947.771C677.111 947.771 676.079 947.573 675.23 947.177C674.382 946.767 673.689 946.216 673.152 945.523C672.615 944.816 672.219 944.01 671.964 943.105C671.724 942.186 671.604 941.224 671.604 940.221V939.033C671.604 937.605 671.844 936.318 672.325 935.173C672.805 934.028 673.541 933.123 674.53 932.458C675.52 931.779 676.786 931.44 678.327 931.44C679.854 931.44 681.112 931.779 682.102 932.458C683.092 933.123 683.82 934.028 684.286 935.173C684.767 936.318 685.008 937.605 685.008 939.033V940.221C685.008 941.224 684.88 942.186 684.626 943.105C684.385 944.01 683.997 944.816 683.459 945.523C682.936 946.216 682.25 946.767 681.402 947.177C680.554 947.573 679.529 947.771 678.327 947.771ZM678.327 945.014C679.585 945.014 680.511 944.583 681.105 943.72C681.699 942.843 681.996 941.486 681.996 939.648C681.996 937.697 681.692 936.304 681.084 935.47C680.476 934.621 679.557 934.197 678.327 934.197C677.083 934.197 676.149 934.621 675.527 935.47C674.919 936.304 674.615 937.683 674.615 939.606C674.615 941.458 674.919 942.822 675.527 943.699C676.135 944.575 677.068 945.014 678.327 945.014ZM694.598 947.771C693.382 947.771 692.35 947.573 691.502 947.177C690.653 946.767 689.96 946.216 689.423 945.523C688.886 944.816 688.49 944.01 688.235 943.105C687.995 942.186 687.875 941.224 687.875 940.221V939.033C687.875 937.605 688.115 936.318 688.596 935.173C689.077 934.028 689.812 933.123 690.802 932.458C691.791 931.779 693.057 931.44 694.598 931.44C696.125 931.44 697.383 931.779 698.373 932.458C699.363 933.123 700.091 934.028 700.558 935.173C701.038 936.318 701.279 937.605 701.279 939.033V940.221C701.279 941.224 701.152 942.186 700.897 943.105C700.657 944.01 700.268 944.816 699.731 945.523C699.207 946.216 698.522 946.767 697.673 947.177C696.825 947.573 695.8 947.771 694.598 947.771ZM694.598 945.014C695.856 945.014 696.783 944.583 697.376 943.72C697.97 942.843 698.267 941.486 698.267 939.648C698.267 937.697 697.963 936.304 697.355 935.47C696.747 934.621 695.828 934.197 694.598 934.197C693.354 934.197 692.421 934.621 691.798 935.47C691.191 936.304 690.887 937.683 690.887 939.606C690.887 941.458 691.191 942.822 691.798 943.699C692.406 944.575 693.34 945.014 694.598 945.014ZM704.74 947.368V931.886H708.854L712.736 941.133H713.117L716.977 931.886H721.156V947.368H718.165V934.155L718.547 934.197L714.369 944.208H711.293L707.094 934.197L707.497 934.155V947.368H704.74ZM727.739 947.474V945.056H731.621C732.328 945.056 732.865 944.865 733.233 944.484C733.6 944.088 733.784 943.55 733.784 942.872C733.784 942.193 733.6 941.67 733.233 941.302C732.865 940.92 732.328 940.73 731.621 940.73H727.739V938.884H731.409C732.441 938.884 733.36 939.012 734.166 939.266C734.986 939.507 735.622 939.917 736.075 940.496C736.541 941.076 736.774 941.854 736.774 942.829V943.126C736.774 944.045 736.569 944.83 736.159 945.48C735.763 946.117 735.163 946.611 734.357 946.965C733.565 947.304 732.582 947.474 731.409 947.474H727.739ZM725.216 947.474V931.779H728.164V947.474H725.216ZM727.739 940.242V938.397H731.048C731.769 938.397 732.299 938.206 732.639 937.824C732.978 937.442 733.148 936.933 733.148 936.297C733.148 935.661 732.978 935.152 732.639 934.77C732.299 934.388 731.769 934.197 731.048 934.197H727.739V931.779H730.772C732.526 931.779 733.855 932.147 734.76 932.882C735.679 933.618 736.138 934.671 736.138 936.042V936.339C736.138 937.301 735.905 938.071 735.438 938.651C734.986 939.217 734.357 939.627 733.551 939.881C732.745 940.122 731.819 940.242 730.772 940.242H727.739Z" fill="#455E86"/>
<path d="M384.297 947.771C383.081 947.771 382.049 947.573 381.201 947.177C380.352 946.767 379.66 946.216 379.122 945.523C378.585 944.816 378.189 944.01 377.935 943.105C377.694 942.186 377.574 941.224 377.574 940.221V939.033C377.574 937.605 377.814 936.318 378.295 935.173C378.776 934.028 379.511 933.123 380.501 932.458C381.491 931.779 382.756 931.44 384.297 931.44C385.824 931.44 387.083 931.779 388.072 932.458C389.062 933.123 389.79 934.028 390.257 935.173C390.738 936.318 390.978 937.605 390.978 939.033V940.221C390.978 941.224 390.851 942.186 390.596 943.105C390.356 944.01 389.967 944.816 389.43 945.523C388.907 946.216 388.221 946.767 387.372 947.177C386.524 947.573 385.499 947.771 384.297 947.771ZM384.297 945.014C385.556 945.014 386.482 944.583 387.076 943.72C387.669 942.843 387.966 941.486 387.966 939.648C387.966 937.697 387.662 936.304 387.054 935.47C386.446 934.621 385.527 934.197 384.297 934.197C383.053 934.197 382.12 934.621 381.498 935.47C380.89 936.304 380.586 937.683 380.586 939.606C380.586 941.458 380.89 942.822 381.498 943.699C382.106 944.575 383.039 945.014 384.297 945.014ZM394.439 947.368V931.886H398.554L402.435 941.133H402.817L406.677 931.886H410.855V947.368H407.864V934.155L408.246 934.197L404.068 944.208H400.993L396.793 934.197L397.196 934.155V947.368H394.439ZM417.439 947.474V945.056H421.32C422.027 945.056 422.564 944.865 422.932 944.484C423.299 944.088 423.483 943.55 423.483 942.872C423.483 942.193 423.299 941.67 422.932 941.302C422.564 940.92 422.027 940.73 421.32 940.73H417.439V938.884H421.108C422.14 938.884 423.059 939.012 423.865 939.266C424.685 939.507 425.321 939.917 425.774 940.496C426.24 941.076 426.474 941.854 426.474 942.829V943.126C426.474 944.045 426.269 944.83 425.859 945.48C425.463 946.117 424.862 946.611 424.056 946.965C423.264 947.304 422.281 947.474 421.108 947.474H417.439ZM414.915 947.474V931.779H417.863V947.474H414.915ZM417.439 940.242V938.397H420.747C421.468 938.397 421.999 938.206 422.338 937.824C422.677 937.442 422.847 936.933 422.847 936.297C422.847 935.661 422.677 935.152 422.338 934.77C421.999 934.388 421.468 934.197 420.747 934.197H417.439V931.779H420.471C422.225 931.779 423.554 932.147 424.459 932.882C425.378 933.618 425.837 934.671 425.837 936.042V936.339C425.837 937.301 425.604 938.071 425.137 938.651C424.685 939.217 424.056 939.627 423.25 939.881C422.444 940.122 421.518 940.242 420.471 940.242H417.439Z" fill="#455E86"/>
<path d="M737 903.318C734.701 855.219 713.708 809.92 678.495 777.073C643.283 744.227 596.635 726.431 548.492 727.478C500.349 728.525 454.519 748.333 420.768 782.679C387.017 817.026 368.014 863.195 367.809 911.349L433.27 911.628C433.403 880.541 445.671 850.735 467.46 828.562C489.249 806.388 518.836 793.601 549.915 792.925C580.995 792.249 611.11 803.738 633.843 824.942C656.575 846.147 670.128 875.392 671.612 906.444L737 903.318Z" fill="#455D83"/>
<path d="M737 903.318C735.326 868.309 723.726 834.498 703.555 805.836C683.383 777.173 655.472 754.841 623.082 741.449C590.693 728.057 555.161 724.157 520.637 730.205C486.114 736.253 454.024 751.999 428.115 775.604L472.203 823.994C488.929 808.755 509.646 798.59 531.933 794.685C554.221 790.781 577.159 793.299 598.069 801.944C618.98 810.59 636.998 825.007 650.021 843.511C663.043 862.015 670.532 883.842 671.612 906.444L737 903.318Z" fill="#5F8DD4"/>
<path d="M737 903.318C734.757 856.394 714.718 812.087 680.961 779.415C647.203 746.744 602.265 728.163 555.292 727.455L554.306 792.91C584.63 793.368 613.641 805.363 635.434 826.455C657.227 847.546 670.164 876.15 671.612 906.444L737 903.318Z" fill="#587CB4"/>
<path d="M737.21 911.702C737.152 887.008 732.142 862.577 722.478 839.852C712.814 817.128 698.692 796.572 680.946 779.401L635.425 826.445C646.881 837.531 655.998 850.801 662.237 865.471C668.476 880.142 671.71 895.914 671.747 911.856L737.21 911.702Z" fill="#5071A2"/>
<path d="M494.248 877.958C496.36 877.958 498.172 878.31 499.684 879.014C501.197 879.692 502.422 880.669 503.361 881.947C504.325 883.198 505.029 884.646 505.473 886.288C505.942 887.931 506.177 889.691 506.177 891.568V893.211C506.177 897.956 504.964 901.541 502.539 903.966C500.115 906.365 496.542 907.564 491.823 907.564C490.858 907.564 489.907 907.538 488.968 907.486C488.029 907.434 487.117 907.356 486.23 907.251V901.893C487.091 901.971 488.016 902.05 489.007 902.128C489.998 902.18 491.015 902.206 492.058 902.206C494.144 902.206 495.786 901.867 496.986 901.189C498.185 900.485 499.032 899.442 499.528 898.06C500.023 896.679 500.271 894.971 500.271 892.937V889.965L501.679 889.026C501.653 890.981 501.249 892.624 500.466 893.954C499.71 895.257 498.654 896.235 497.299 896.887C495.943 897.539 494.378 897.865 492.605 897.865C490.598 897.865 488.864 897.474 487.404 896.692C485.943 895.883 484.822 894.762 484.04 893.328C483.258 891.894 482.867 890.199 482.867 888.244C482.867 886.184 483.336 884.385 484.275 882.846C485.213 881.282 486.53 880.083 488.225 879.248C489.946 878.388 491.953 877.958 494.248 877.958ZM494.443 883.277C493.296 883.277 492.318 883.485 491.51 883.902C490.728 884.32 490.115 884.893 489.672 885.623C489.255 886.327 489.046 887.162 489.046 888.126C489.046 889.117 489.255 889.978 489.672 890.708C490.089 891.412 490.676 891.972 491.432 892.389C492.214 892.78 493.166 892.976 494.287 892.976C495.304 892.976 496.23 892.807 497.064 892.468C497.924 892.103 498.602 891.568 499.098 890.864C499.593 890.134 499.841 889.221 499.841 888.126C499.841 887.188 499.632 886.353 499.215 885.623C498.824 884.893 498.224 884.32 497.416 883.902C496.608 883.485 495.617 883.277 494.443 883.277ZM521.973 908.151C519.861 908.151 518.049 907.812 516.536 907.134C515.024 906.43 513.786 905.452 512.821 904.201C511.882 902.923 511.178 901.463 510.709 899.82C510.266 898.178 510.044 896.418 510.044 894.54V892.898C510.044 888.152 511.257 884.58 513.681 882.182C516.106 879.757 519.678 878.544 524.398 878.544C525.362 878.544 526.314 878.57 527.253 878.623C528.191 878.675 529.104 878.753 529.99 878.857V884.215C529.13 884.137 528.204 884.072 527.214 884.02C526.223 883.942 525.206 883.902 524.163 883.902C522.077 883.902 520.434 884.254 519.235 884.958C518.036 885.636 517.188 886.666 516.693 888.048C516.198 889.43 515.95 891.138 515.95 893.172V896.144L514.542 897.083C514.568 895.127 514.959 893.498 515.715 892.194C516.497 890.864 517.566 889.873 518.922 889.221C520.278 888.57 521.842 888.244 523.615 888.244C525.623 888.244 527.357 888.648 528.817 889.456C530.277 890.238 531.398 891.346 532.181 892.78C532.963 894.215 533.354 895.909 533.354 897.865C533.354 899.925 532.885 901.737 531.946 903.301C531.007 904.84 529.678 906.039 527.957 906.899C526.262 907.734 524.267 908.151 521.973 908.151ZM521.777 902.832C522.925 902.832 523.889 902.623 524.671 902.206C525.48 901.789 526.092 901.228 526.51 900.524C526.953 899.794 527.175 898.947 527.175 897.982C527.175 896.991 526.966 896.144 526.549 895.44C526.132 894.71 525.532 894.149 524.75 893.758C523.994 893.341 523.055 893.132 521.934 893.132C520.917 893.132 519.978 893.315 519.118 893.68C518.283 894.019 517.619 894.554 517.123 895.284C516.628 895.988 516.38 896.887 516.38 897.982C516.38 898.921 516.576 899.755 516.967 900.485C517.384 901.215 517.997 901.789 518.805 902.206C519.613 902.623 520.604 902.832 521.777 902.832ZM536.791 907.33V901.463C536.791 900.238 536.987 899.169 537.378 898.256C537.795 897.343 538.447 896.535 539.333 895.831C540.22 895.101 541.393 894.423 542.853 893.797L547.468 891.803C548.642 891.307 549.502 890.695 550.05 889.965C550.623 889.234 550.91 888.309 550.91 887.188C550.91 886.04 550.558 885.102 549.854 884.372C549.15 883.642 548.12 883.277 546.764 883.277C545.409 883.277 544.379 883.655 543.675 884.411C542.971 885.167 542.619 886.184 542.619 887.461H536.4C536.4 885.662 536.791 884.046 537.573 882.612C538.356 881.152 539.516 880.004 541.054 879.17C542.593 878.336 544.496 877.919 546.764 877.919C549.033 877.919 550.923 878.323 552.435 879.131C553.974 879.939 555.134 881.021 555.916 882.377C556.725 883.733 557.129 885.258 557.129 886.953V887.422C557.129 889.613 556.529 891.425 555.33 892.859C554.13 894.267 552.279 895.518 549.776 896.613L545.2 898.608C544.418 898.947 543.857 899.299 543.518 899.664C543.205 900.029 543.049 900.524 543.049 901.15V903.106L541.524 901.815H557.168V907.33H536.791ZM560.696 907.33V900.329H567.579V907.33H560.696ZM581.299 908.073C579.083 908.073 577.153 907.669 575.511 906.86C573.894 906.026 572.656 904.905 571.795 903.497C570.935 902.089 570.505 900.498 570.505 898.725H576.684C576.684 899.925 577.088 900.902 577.896 901.659C578.705 902.389 579.839 902.754 581.299 902.754C582.264 902.754 583.085 902.571 583.763 902.206C584.441 901.841 584.962 901.346 585.327 900.72C585.692 900.068 585.875 899.338 585.875 898.53C585.875 897.278 585.471 896.248 584.663 895.44C583.88 894.632 582.759 894.228 581.299 894.228C580.517 894.228 579.826 894.345 579.226 894.58C578.653 894.814 578.157 895.101 577.74 895.44L574.846 890.551L583.489 884.919L583.137 884.254H571.678V878.779H590.92V884.724L580.947 891.06L577.818 890.199C578.34 890.043 578.887 889.925 579.461 889.847C580.061 889.743 580.699 889.691 581.377 889.691C583.594 889.691 585.497 890.056 587.087 890.786C588.678 891.516 589.903 892.546 590.764 893.876C591.65 895.179 592.094 896.705 592.094 898.452V898.921C592.094 900.668 591.65 902.232 590.764 903.614C589.903 904.996 588.665 906.091 587.048 906.899C585.458 907.682 583.541 908.073 581.299 908.073ZM608.489 908.073C606.22 908.073 604.278 907.708 602.661 906.978C601.045 906.221 599.728 905.205 598.711 903.927C597.72 902.649 596.977 901.176 596.482 899.507C596.012 897.813 595.778 896.027 595.778 894.149V891.92C595.778 889.313 596.234 886.953 597.147 884.841C598.059 882.729 599.454 881.047 601.331 879.796C603.209 878.544 605.594 877.919 608.489 877.919C611.383 877.919 613.755 878.544 615.607 879.796C617.484 881.047 618.879 882.729 619.792 884.841C620.704 886.953 621.16 889.313 621.16 891.92V894.149C621.16 896.027 620.913 897.813 620.417 899.507C619.948 901.176 619.205 902.649 618.188 903.927C617.197 905.205 615.894 906.221 614.277 906.978C612.686 907.708 610.757 908.073 608.489 908.073ZM608.489 902.167C610.601 902.167 612.165 901.437 613.182 899.977C614.225 898.491 614.746 896.196 614.746 893.093C614.746 889.808 614.212 887.448 613.143 886.014C612.1 884.554 610.548 883.824 608.489 883.824C606.377 883.824 604.799 884.554 603.756 886.014C602.713 887.448 602.192 889.782 602.192 893.015C602.192 896.144 602.7 898.452 603.717 899.938C604.76 901.424 606.351 902.167 608.489 902.167Z" fill="#08080C"/>
<path d="M638.825 905.629V892.302H759.474L638.825 905.629Z" fill="black"/>
<defs>
<filter id="filter0_d_5931_321" x="-399.07" y="0.543209" width="1916.81" height="1733.77" filterUnits="userSpaceOnUse" color-interpolation-filters="sRGB">
<feFlood flood-opacity="0" result="BackgroundImageFix"/>
<feColorMatrix in="SourceAlpha" type="matrix" values="0 0 0 0 0 0 0 0 0 0 0 0 0 0 0 0 0 0 127 0" result="hardAlpha"/>
<feOffset dy="12.6127"/>
<feGaussianBlur stdDeviation="346.535"/>
<feComposite in2="hardAlpha" operator="out"/>
<feColorMatrix type="matrix" values="0 0 0 0 0 0 0 0 0 0 0 0 0 0 0 0 0 0 0.17 0"/>
<feBlend mode="normal" in2="BackgroundImageFix" result="effect1_dropShadow_5931_321"/>
<feBlend mode="normal" in="SourceGraphic" in2="effect1_dropShadow_5931_321" result="shape"/>
</filter>
<linearGradient id="paint0_linear_5931_321" x1="720.992" y1="1097.36" x2="356.194" y2="702.726" gradientUnits="userSpaceOnUse">
<stop stop-color="#D3E0F5"/>
<stop offset="1" stop-color="white"/>
</linearGradient>
</defs>
</svg>
